<?xml version="1.0" encoding="iso-8859-1"?>
<!-- Generator: Adobe Illustrator 19.0.0, SVG Export Plug-In . SVG Version: 6.00 Build 0)  -->
<svg version="1.1" id="Capa_1" xmlns="http://www.w3.org/2000/svg" xmlns:xlink="http://www.w3.org/1999/xlink" x="0px" y="0px"
	 viewBox="0 0 512 512" style="enable-background:new 0 0 512 512;" xml:space="preserve">
<circle style="fill:#FFC639;" cx="483.001" cy="76.136" r="18.999"/>
<g>
	<path style="fill:#72DD90;" d="M59.626,59.859c-5.6-5.6-14.679-5.6-20.28,0L9.999,89.206l57.027,57.026l29.347-29.347
		c5.6-5.6,14.679-5.6,20.28,0L59.626,59.859z"/>
	<path style="fill:#72DD90;" d="M59.735,59.751c-5.6-5.6-5.6-14.679,0-20.28l29.456-29.456l57.026,57.026l-29.456,29.456
		c-5.6,5.6-5.6,14.679,0,20.28L59.735,59.751z"/>
</g>
<circle style="fill:#039FDD;" cx="222.987" cy="84.086" r="41.038"/>
<path style="fill:#F1F2F2;" d="M414.922,501.986h20.241l-9.847-93.979c-3.328-31.761,3.909-63.716,20.524-90.989
	c19.547-32.086,30.818-73.917,30.197-110.45c-0.276-16.231-2.875-31.85-7.458-46.562H351.017h-57.563H154.084
	c-4.902,15.605-7.553,32.207-7.553,49.429c0,24.383-22.301,83.579-31.496,102.626h49.689l-0.234,32.553
	c-0.279,38.815,31.199,70.382,70.015,70.214l0,0c27.274-0.119,49.448,21.959,49.448,49.233v37.925h69.051L414.922,501.986
	L414.922,501.986z"/>
<path d="M322.781,150.007c-2.63,0-5.21,1.069-7.07,2.93c-1.859,1.86-2.93,4.44-2.93,7.07s1.07,5.21,2.93,7.069
	c1.86,1.86,4.44,2.931,7.07,2.931c2.64,0,5.21-1.07,7.07-2.931c1.859-1.859,2.93-4.439,2.93-7.069s-1.07-5.21-2.93-7.07
	C327.991,151.077,325.421,150.007,322.781,150.007z"/>
<path d="M478.127,157.033c-1.302-4.18-5.171-7.026-9.547-7.026H360.979c-5.522,0-9.999,4.478-9.999,9.999
	c0,5.522,4.478,9.999,9.999,9.999h100.06c3.108,11.945,4.788,24.27,5,36.733c0.59,34.746-10.422,75.01-28.738,105.077
	c-17.672,29.008-25.461,63.539-21.93,97.232l8.69,82.938H293.953V464.06c0-15.87-6.194-30.777-17.44-41.976
	c-11.184-11.135-26.012-17.258-41.784-17.258c-0.177,0.001-0.355,0.003-0.534,0.002c-15.978,0-30.984-6.228-42.276-17.55
	c-11.354-11.387-17.544-26.513-17.429-42.594l0.234-32.553c0.019-2.665-1.026-5.227-2.903-7.118
	c-1.878-1.891-4.432-2.954-7.097-2.954h-34.439c10.318-25.263,26.244-70.337,26.244-92.627c0-13.376,1.705-26.606,5.074-39.431
	h122.879c5.522,0,9.999-4.478,9.999-9.999c0-5.522-4.478-9.999-9.999-9.999h-130.4c-4.368,0-8.231,2.836-9.539,7.004
	c-5.317,16.926-8.013,34.564-8.013,52.426c0,21.838-21.185,78.979-30.501,98.278c-1.496,3.1-1.293,6.749,0.536,9.663
	c1.829,2.914,5.028,4.684,8.47,4.684h39.618l-0.162,22.482c-0.153,21.466,8.109,41.658,23.267,56.858
	c15.073,15.115,35.102,23.428,56.435,23.428c0.178-0.001,0.354-0.003,0.533-0.002c10.445,0,20.269,4.056,27.676,11.431
	c7.45,7.417,11.552,17.291,11.552,27.803v37.926c0,5.522,4.478,9.999,9.999,9.999h151.21c2.834,0,5.534-1.202,7.431-3.308
	c1.897-2.106,2.811-4.916,2.515-7.734l-9.847-93.979c-3.076-29.36,3.714-59.457,19.119-84.744
	c20.482-33.622,32.316-76.92,31.656-115.821C485.749,189.573,483.087,172.963,478.127,157.033z"/>
<path d="M380.633,41.094c5.522,0,9.999-4.478,9.999-9.999c0-6.11,4.971-11.08,11.08-11.08c6.11,0,11.08,4.971,11.08,11.08
	s-4.971,11.081-11.08,11.081c-5.522,0-9.999,4.478-9.999,9.999v6.337c0,5.522,4.478,9.999,9.999,9.999
	c4.808,0,8.821-3.393,9.781-7.914c12.358-4.108,21.298-15.781,21.298-29.503c0-17.137-13.942-31.079-31.079-31.079
	s-31.079,13.942-31.079,31.079C370.634,36.618,375.112,41.094,380.633,41.094z"/>
<path d="M401.716,78.741c-2.631,0-5.211,1.061-7.07,2.92c-1.86,1.87-2.93,4.44-2.93,7.08c0,2.63,1.069,5.21,2.93,7.07
	c1.859,1.86,4.439,2.93,7.07,2.93c2.63,0,5.199-1.069,7.069-2.93c1.86-1.86,2.931-4.44,2.931-7.07c0-2.64-1.07-5.21-2.931-7.08
	C406.926,79.801,404.346,78.741,401.716,78.741z"/>
<path d="M109.581,123.955c3.906,3.904,10.235,3.904,14.142,0c0.018-0.018,0.033-0.039,0.052-0.057s0.039-0.033,0.057-0.052
	c1.952-1.953,2.929-4.512,2.929-7.071s-0.977-5.118-2.929-7.071c-1.106-1.106-1.271-2.397-1.271-3.069
	c0-0.671,0.165-1.962,1.271-3.068l29.456-29.456c3.905-3.905,3.905-10.236,0-14.142L96.262,2.945
	c-3.906-3.904-10.235-3.904-14.142,0L52.665,32.401c-3.719,3.719-6.085,8.429-6.854,13.534c-5.106,0.769-9.816,3.135-13.534,6.854
	L2.929,82.136c-3.905,3.905-3.905,10.236,0,14.142l57.026,57.026c1.953,1.952,4.512,2.929,7.071,2.929s5.118-0.977,7.071-2.929
	l29.348-29.349c1.106-1.105,2.397-1.271,3.068-1.271C107.184,122.685,108.475,122.849,109.581,123.955z M66.806,46.542
	l22.386-22.386l42.884,42.884l-22.385,22.386c-1.041,1.04-1.976,2.158-2.799,3.34L66.806,52.68
	c-1.106-1.106-1.271-2.397-1.271-3.069C65.534,48.94,65.699,47.649,66.806,46.542z M89.303,109.814l-22.277,22.277L24.141,89.206
	l22.277-22.278c1.106-1.105,2.397-1.271,3.068-1.271c0.672,0,1.963,0.165,3.069,1.271l40.087,40.087
	C91.46,107.839,90.342,108.774,89.303,109.814z"/>
<path d="M322.273,118.777h8.046v8.046c0,5.522,4.478,9.999,9.999,9.999c5.522,0,9.999-4.478,9.999-9.999v-8.046h8.046
	c5.522,0,9.999-4.478,9.999-9.999c0-5.522-4.478-9.999-9.999-9.999h-8.046v-8.046c0-5.522-4.478-9.999-9.999-9.999
	c-5.522,0-9.999,4.478-9.999,9.999v8.046h-8.046c-5.522,0-9.999,4.478-9.999,9.999C312.273,114.299,316.751,118.777,322.273,118.777
	z"/>
<path d="M483.001,47.135c-15.989,0-28.998,13.009-28.998,28.998s13.009,28.998,28.998,28.998c15.989,0,28.998-13.009,28.998-28.998
	S498.99,47.135,483.001,47.135z M483.001,85.133c-4.963,0-8.999-4.037-8.999-8.999c0-4.963,4.037-8.999,8.999-8.999
	c4.963,0,8.999,4.037,8.999,8.999C492.001,81.096,487.963,85.133,483.001,85.133z"/>
<path d="M293.611,34.419l0.358-0.356v29.949c0,5.522,4.478,9.999,9.999,9.999c5.522,0,9.999-4.478,9.999-9.999V10.015
	c0-4.04-2.431-7.683-6.16-9.232c-3.73-1.553-8.027-0.705-10.891,2.143L279.507,20.24c-3.916,3.896-3.934,10.226-0.038,14.142
	C283.364,38.295,289.695,38.314,293.611,34.419z"/>
<path d="M222.987,135.122c28.143,0,51.039-22.895,51.039-51.038s-22.896-51.039-51.039-51.039s-51.039,22.896-51.039,51.039
	S194.844,135.122,222.987,135.122z M222.987,53.044c17.115,0,31.04,13.925,31.04,31.04s-13.925,31.039-31.04,31.039
	s-31.04-13.924-31.04-31.039S205.872,53.044,222.987,53.044z"/>
<path d="M222.987,94.083h6.371c5.522,0,9.999-4.478,9.999-9.999c0-4.243-2.643-7.868-6.371-9.32v-8.881
	c0-5.522-4.478-9.999-9.999-9.999c-5.522,0-9.999,4.478-9.999,9.999v18.202C212.987,89.606,217.465,94.083,222.987,94.083z"/>
<path d="M406.557,292.794c1.31,0.575,2.676,0.849,4.021,0.849c3.845,0,7.512-2.231,9.158-5.978
	c12.313-28.003,18.597-56.104,18.169-81.266c-0.094-5.465-4.552-9.829-9.995-9.829c-0.057,0-0.115,0-0.173,0.001
	c-5.522,0.095-9.922,4.647-9.828,10.168c0.38,22.296-5.319,47.496-16.479,72.876C399.206,284.67,401.502,290.57,406.557,292.794z"/>
<path d="M386.332,308.546l-0.176,0.289c-2.862,4.723-1.354,10.871,3.369,13.733c1.62,0.982,3.407,1.449,5.173,1.449
	c3.382,0,6.681-1.715,8.562-4.818l0.176-0.289c2.862-4.723,1.354-10.871-3.369-13.733
	C395.344,302.314,389.195,303.822,386.332,308.546z"/>
<g>
</g>
<g>
</g>
<g>
</g>
<g>
</g>
<g>
</g>
<g>
</g>
<g>
</g>
<g>
</g>
<g>
</g>
<g>
</g>
<g>
</g>
<g>
</g>
<g>
</g>
<g>
</g>
<g>
</g>
</svg>
